<svg width="515" height="78" viewBox="0 0 515 78" fill="none" xmlns="http://www.w3.org/2000/svg">
<path d="M19.8841 73L0.739227 6.09088H16.1924L27.2676 52.5809H27.823L40.0418 6.09088H53.2733L65.4594 52.6789H66.0475L77.1228 6.09088H92.5759L73.431 73H59.6441L46.9026 29.2542H46.3799L33.671 73H19.8841Z" fill="black"/>
<path d="M105.603 77.2471C100.528 77.2471 96.1397 76.169 92.437 74.0127C88.7561 71.8347 85.9138 68.8072 83.91 64.9304C81.9062 61.0317 80.9043 56.5123 80.9043 51.3721C80.9043 46.1884 81.9062 41.6581 83.91 37.7812C85.9138 33.8825 88.7561 30.8551 92.437 28.6988C96.1397 26.5208 100.528 25.4318 105.603 25.4318C110.678 25.4318 115.056 26.5208 118.737 28.6988C122.439 30.8551 125.293 33.8825 127.296 37.7812C129.3 41.6581 130.302 46.1884 130.302 51.3721C130.302 56.5123 129.3 61.0317 127.296 64.9304C125.293 68.8072 122.439 71.8347 118.737 74.0127C115.056 76.169 110.678 77.2471 105.603 77.2471ZM105.669 66.4659C107.977 66.4659 109.905 65.8125 111.451 64.5056C112.998 63.177 114.163 61.3693 114.947 59.0823C115.753 56.7954 116.156 54.1927 116.156 51.2741C116.156 48.3555 115.753 45.7528 114.947 43.4659C114.163 41.1789 112.998 39.3712 111.451 38.0426C109.905 36.714 107.977 36.0497 105.669 36.0497C103.338 36.0497 101.378 36.714 99.7879 38.0426C98.2197 39.3712 97.0327 41.1789 96.2268 43.4659C95.4427 45.7528 95.0507 48.3555 95.0507 51.2741C95.0507 54.1927 95.4427 56.7954 96.2268 59.0823C97.0327 61.3693 98.2197 63.177 99.7879 64.5056C101.378 65.8125 103.338 66.4659 105.669 66.4659Z" fill="black"/>
<path d="M124.478 52.6789C119.403 52.6789 115.014 51.6007 111.312 49.4445C107.631 47.2665 104.789 44.239 102.785 40.3621C100.781 36.4634 99.7791 31.944 99.7791 26.8039C99.7791 21.6202 100.781 17.0899 102.785 13.213C104.789 9.31428 107.631 6.28682 111.312 4.13057C115.014 1.95254 119.403 0.863525 124.478 0.863525C129.553 0.863525 133.931 1.95254 137.611 4.13057C141.314 6.28682 144.167 9.31428 146.171 13.213C148.175 17.0899 149.177 21.6202 149.177 26.8039C149.177 31.944 148.175 36.4634 146.171 40.3621C144.167 44.239 141.314 47.2665 137.611 49.4445C133.931 51.6007 129.553 52.6789 124.478 52.6789ZM124.543 41.8976C126.852 41.8976 128.78 41.2442 130.326 39.9374C131.872 38.6088 133.038 36.801 133.822 34.5141C134.628 32.2272 135.031 29.6244 135.031 26.7059C135.031 23.7873 134.628 21.1845 133.822 18.8976C133.038 16.6107 131.872 14.8029 130.326 13.4743C128.78 12.1457 126.852 11.4814 124.543 11.4814C122.213 11.4814 120.253 12.1457 118.663 13.4743C117.094 14.8029 115.907 16.6107 115.102 18.8976C114.317 21.1845 113.925 23.7873 113.925 26.7059C113.925 29.6244 114.317 32.2272 115.102 34.5141C115.907 36.801 117.094 38.6088 118.663 39.9374C120.253 41.2442 122.213 41.8976 124.543 41.8976Z" fill="black"/>
<path d="M180.148 24.615V35.0696H149.177V24.615H180.148ZM156.266 74.7968V20.9886C156.266 17.3513 156.974 14.3347 158.39 11.9389C159.827 9.54305 161.788 7.74618 164.271 6.54826C166.754 5.35034 169.574 4.75138 172.732 4.75138C174.867 4.75138 176.816 4.91474 178.58 5.24145C180.366 5.56815 181.695 5.86218 182.566 6.12355L180.083 16.5781C179.539 16.4038 178.863 16.2405 178.058 16.088C177.273 15.9356 176.468 15.8593 175.64 15.8593C173.593 15.8593 172.166 16.3385 171.36 17.2968C170.554 18.2334 170.151 19.5511 170.151 21.25V74.7968H156.266Z" fill="black"/>
<path d="M216.519 22.8181V33.2727H186.299V22.8181H216.519ZM193.16 10.7954H207.077V57.5795C207.077 58.8645 207.273 59.8664 207.665 60.5852C208.057 61.2822 208.602 61.7722 209.299 62.0554C210.018 62.3385 210.845 62.4801 211.782 62.4801C212.435 62.4801 213.089 62.4256 213.742 62.3167C214.395 62.186 214.896 62.088 215.245 62.0227L217.434 72.3792C216.737 72.597 215.757 72.8475 214.493 73.1306C213.23 73.4356 211.695 73.6207 209.887 73.686C206.533 73.8167 203.592 73.3702 201.066 72.3465C198.561 71.3229 196.612 69.7329 195.218 67.5767C193.824 65.4204 193.138 62.6979 193.16 59.409V10.7954Z" fill="black"/>
<path d="M241.895 73.9474C238.693 73.9474 235.84 73.392 233.335 72.2812C230.83 71.1486 228.848 69.4824 227.389 67.2826C225.952 65.061 225.233 62.2949 225.233 58.9843C225.233 56.1965 225.745 53.8551 226.768 51.9602C227.792 50.0653 229.186 48.5407 230.95 47.3863C232.714 46.232 234.718 45.3608 236.962 44.7727C239.227 44.1846 241.601 43.7708 244.084 43.5312C247.002 43.2263 249.355 42.9431 251.141 42.6818C252.926 42.3986 254.222 41.9848 255.028 41.4403C255.834 40.8958 256.237 40.0899 256.237 39.0227V38.8267C256.237 36.7575 255.584 35.1567 254.277 34.0241C252.992 32.8915 251.162 32.3253 248.788 32.3253C246.284 32.3253 244.291 32.8807 242.81 33.9914C241.328 35.0805 240.348 36.4526 239.869 38.1079L226.997 37.0625C227.65 34.0132 228.935 31.3778 230.852 29.1562C232.769 26.9128 235.241 25.1922 238.268 23.9943C241.318 22.7746 244.846 22.1647 248.854 22.1647C251.641 22.1647 254.31 22.4914 256.858 23.1449C259.428 23.7983 261.704 24.811 263.686 26.1832C265.69 27.5554 267.269 29.3196 268.423 31.4758C269.578 33.6103 270.155 36.1695 270.155 39.1534V73H256.956V66.0412H256.564C255.758 67.6093 254.68 68.9924 253.329 70.1903C251.979 71.3664 250.356 72.2921 248.462 72.9673C246.567 73.6207 244.378 73.9474 241.895 73.9474ZM245.881 64.3423C247.928 64.3423 249.736 63.9394 251.304 63.1335C252.872 62.3058 254.103 61.195 254.996 59.8011C255.889 58.4072 256.335 56.8281 256.335 55.0639V49.7386C255.9 50.0217 255.301 50.2831 254.538 50.5227C253.798 50.7405 252.959 50.9474 252.023 51.1434C251.086 51.3177 250.15 51.481 249.213 51.6335C248.276 51.7642 247.427 51.884 246.665 51.9929C245.031 52.2324 243.605 52.6136 242.385 53.1363C241.165 53.659 240.218 54.3669 239.542 55.2599C238.867 56.1311 238.53 57.2201 238.53 58.5269C238.53 60.4218 239.216 61.8702 240.588 62.8721C241.982 63.8522 243.746 64.3423 245.881 64.3423Z" fill="black"/>
<path d="M322.705 37.1278L309.964 37.9119C309.746 36.8229 309.278 35.8428 308.559 34.9715C307.84 34.0786 306.893 33.3707 305.716 32.848C304.562 32.3035 303.179 32.0312 301.567 32.0312C299.411 32.0312 297.592 32.4886 296.111 33.4034C294.63 34.2964 293.89 35.4943 293.89 36.9971C293.89 38.195 294.369 39.2078 295.327 40.0355C296.286 40.8631 297.93 41.5274 300.261 42.0284L309.343 43.8579C314.222 44.8598 317.859 46.4715 320.255 48.6931C322.651 50.9147 323.849 53.8333 323.849 57.4488C323.849 60.7376 322.879 63.6235 320.941 66.1065C319.024 68.5894 316.389 70.5279 313.035 71.9218C309.702 73.294 305.858 73.9801 301.502 73.9801C294.859 73.9801 289.566 72.597 285.624 69.8309C281.704 67.043 279.406 63.2533 278.731 58.4616L292.42 57.7429C292.833 59.7684 293.835 61.3148 295.425 62.3821C297.015 63.4275 299.052 63.9502 301.535 63.9502C303.974 63.9502 305.934 63.482 307.415 62.5454C308.918 61.5871 309.681 60.3565 309.702 58.8537C309.681 57.5904 309.147 56.5558 308.101 55.75C307.056 54.9223 305.444 54.2907 303.266 53.8551L294.576 52.1235C289.675 51.1434 286.027 49.4446 283.631 47.0269C281.257 44.6093 280.07 41.5274 280.07 37.7812C280.07 34.5577 280.941 31.7807 282.684 29.4503C284.448 27.1198 286.92 25.3229 290.1 24.0596C293.302 22.7964 297.048 22.1647 301.339 22.1647C307.677 22.1647 312.664 23.5042 316.302 26.1832C319.961 28.8622 322.095 32.5104 322.705 37.1278Z" fill="black"/>
<path d="M359.304 22.8181V33.2727H329.084V22.8181H359.304ZM335.945 10.7954H349.862V57.5795C349.862 58.8645 350.058 59.8664 350.451 60.5852C350.843 61.2822 351.387 61.7722 352.084 62.0554C352.803 62.3385 353.63 62.4801 354.567 62.4801C355.22 62.4801 355.874 62.4256 356.527 62.3167C357.181 62.186 357.682 62.088 358.03 62.0227L360.219 72.3792C359.522 72.597 358.542 72.8475 357.279 73.1306C356.015 73.4356 354.48 73.6207 352.672 73.686C349.318 73.8167 346.378 73.3702 343.851 72.3465C341.346 71.3229 339.397 69.7329 338.003 67.5767C336.609 65.4204 335.923 62.6979 335.945 59.409V10.7954Z" fill="black"/>
<path d="M368.37 73V22.8181H382.288V73H368.37ZM375.362 16.3494C373.293 16.3494 371.518 15.6633 370.036 14.2912C368.577 12.8972 367.848 11.231 367.848 9.29258C367.848 7.37591 368.577 5.7315 370.036 4.35934C371.518 2.9654 373.293 2.26843 375.362 2.26843C377.431 2.26843 379.195 2.9654 380.654 4.35934C382.135 5.7315 382.876 7.37591 382.876 9.29258C382.876 11.231 382.135 12.8972 380.654 14.2912C379.195 15.6633 377.431 16.3494 375.362 16.3494Z" fill="black"/>
<path d="M416.11 73.9801C410.97 73.9801 406.548 72.8911 402.846 70.713C399.165 68.5132 396.333 65.464 394.351 61.5653C392.391 57.6666 391.411 53.1799 391.411 48.1051C391.411 42.9649 392.402 38.4564 394.384 34.5795C396.388 30.6808 399.23 27.6425 402.911 25.4645C406.592 23.2646 410.97 22.1647 416.045 22.1647C420.422 22.1647 424.256 22.9597 427.545 24.5497C430.833 26.1396 433.436 28.3721 435.353 31.2471C437.27 34.1221 438.326 37.4981 438.522 41.375H425.388C425.018 38.8702 424.038 36.8555 422.448 35.3309C420.88 33.7845 418.822 33.0113 416.273 33.0113C414.117 33.0113 412.233 33.5994 410.621 34.7755C409.031 35.9299 407.79 37.6179 406.897 39.8394C406.004 42.061 405.557 44.7509 405.557 47.909C405.557 51.1108 405.993 53.8333 406.864 56.0767C407.757 58.32 409.01 60.0298 410.621 61.2059C412.233 62.3821 414.117 62.9701 416.273 62.9701C417.863 62.9701 419.29 62.6434 420.553 61.99C421.838 61.3366 422.895 60.3892 423.722 59.1477C424.572 57.8844 425.127 56.3707 425.388 54.6065H438.522C438.304 58.4398 437.259 61.8158 435.386 64.7343C433.534 67.6311 430.975 69.8963 427.708 71.5298C424.441 73.1633 420.575 73.9801 416.11 73.9801Z" fill="black"/>
</svg>
